<svg width="36" height="40" viewBox="0 0 36 40" fill="none" xmlns="http://www.w3.org/2000/svg">
<path d="M31.155 7.78848C31.1275 7.58733 30.9523 7.47615 30.8075 7.46394C30.6629 7.45172 27.6036 7.2239 27.6036 7.2239C27.6036 7.2239 25.4789 5.10408 25.2459 4.8695C25.0124 4.63493 24.5568 4.70627 24.38 4.75864C24.3538 4.76636 23.9157 4.90228 23.1909 5.12753C22.481 3.07519 21.2286 1.18897 19.0249 1.18897C18.9642 1.18897 18.9015 1.19154 18.8388 1.19508C18.2122 0.362186 17.4358 0.000366211 16.7653 0.000366211C11.6322 0.000366211 9.17974 6.44917 8.41076 9.72643C6.4162 10.3476 4.9991 10.7891 4.81813 10.8463C3.70478 11.1972 3.66961 11.2325 3.52349 12.2868C3.41318 13.085 0.5 35.726 0.5 35.726L23.2001 40.0004L35.5 37.3262C35.5 37.3262 31.1822 7.98963 31.155 7.78848ZM21.9362 5.51763C21.3661 5.695 20.718 5.89648 20.0155 6.11498C20.0161 5.97906 20.0168 5.84507 20.0168 5.69886C20.0168 4.42317 19.8406 3.3962 19.5579 2.58194C20.6934 2.72526 21.4495 4.02344 21.9362 5.51763ZM18.1495 2.83483C18.4651 3.62981 18.6703 4.77053 18.6703 6.31003C18.6703 6.38876 18.6697 6.46074 18.6691 6.53368C17.4198 6.92249 16.0625 7.34472 14.702 7.76824C15.4659 4.80556 16.8977 3.37467 18.1495 2.83483ZM16.6243 1.38402C16.8459 1.38402 17.0691 1.45953 17.2827 1.60735C15.6376 2.38529 13.8742 4.34477 13.1295 8.25762C12.0411 8.59631 10.9773 8.92728 9.9938 9.23351C10.8661 6.24898 12.9374 1.38402 16.6243 1.38402Z" fill="#95BF46"/>
<path d="M30.8077 7.46392C30.6632 7.45171 27.6039 7.22388 27.6039 7.22388C27.6039 7.22388 25.4792 5.10406 25.2461 4.86949C25.1588 4.78208 25.0411 4.73742 24.918 4.71814L23.2017 40L35.5002 37.3262C35.5002 37.3262 31.1824 7.98962 31.1553 7.78846C31.1278 7.58731 30.9525 7.47613 30.8077 7.46392Z" fill="#5E8E3E"/>
<path d="M19.0248 14.2938L17.5082 18.8274C17.5082 18.8274 16.1794 18.1147 14.5506 18.1147C12.1628 18.1147 12.0426 19.6208 12.0426 20.0003C12.0426 22.071 17.4136 22.8643 17.4136 27.7145C17.4136 31.5303 15.0053 33.9875 11.758 33.9875C7.86129 33.9875 5.86865 31.5502 5.86865 31.5502L6.91197 28.086C6.91197 28.086 8.96025 29.8533 10.6888 29.8533C11.8181 29.8533 12.2776 28.9597 12.2776 28.3067C12.2776 25.6056 7.8712 25.4851 7.8712 21.0469C7.8712 17.3114 10.5391 13.6964 15.9246 13.6964C17.9997 13.6964 19.0248 14.2938 19.0248 14.2938Z" fill="white"/>
</svg>
